HIERARCHY
ROOT hip
{
  OFFSET 0 0 0
  CHANNELS 6 Xposition Yposition Zposition Zrotation Yrotation Xrotation
  JOINT abdomen
  {
    OFFSET 0 20.6881 -0.73152
    CHANNELS 3 Zrotation Xrotation Yrotation
    JOINT chest
    {
      OFFSET 0 11.7043 -0.48768
      CHANNELS 3 Zrotation Xrotation Yrotation
      JOINT neck
      {
        OFFSET 0 22.1894 -2.19456
        CHANNELS 3 Zrotation Xrotation Yrotation
        JOINT head
        {
          OFFSET -0.24384 7.07133 1.2192
          CHANNELS 3 Zrotation Xrotation Yrotation
          JOINT leftEye
          {
            OFFSET 4.14528 8.04674 8.04672
            CHANNELS 3 Zrotation Xrotation Yrotation
            End Site
            {
              OFFSET 1 0 0
            }
          }
          JOINT rightEye
          {
            OFFSET -3.6576 8.04674 8.04672
            CHANNELS 3 Zrotation Xrotation Yrotation
            End Site
            {
              OFFSET 1 0 0
            }
          }
        }
      }
      JOINT rCollar
      {
        OFFSET -2.68224 19.2634 -4.8768
        CHANNELS 3 Zrotation Xrotation Yrotation
        JOINT rShldr
        {
          OFFSET -8.77824 -1.95073 1.46304
          CHANNELS 3 Zrotation Xrotation Yrotation
          JOINT rForeArm
          {
            OFFSET -28.1742 -1.7115 0.48768
            CHANNELS 3 Zrotation Xrotation Yrotation
            JOINT rHand
            {
              OFFSET -22.5879 0.773209 7.07136
              CHANNELS 3 Zrotation Xrotation Yrotation
              JOINT rThumb1
              {
                OFFSET -1.2192 -0.487915 3.41376
                CHANNELS 3 Zrotation Xrotation Yrotation
                JOINT rThumb2
                {
                  OFFSET -3.37035 -0.52449 3.41376
                  CHANNELS 3 Zrotation Xrotation Yrotation
                  End Site
                  {
                    OFFSET -1.78271 -1.18214 1.43049
                  }
                }
              }
              JOINT rIndex1
              {
                OFFSET -7.75947 0.938293 5.60832
                CHANNELS 3 Zrotation Xrotation Yrotation
                JOINT rIndex2
                {
                  OFFSET -2.54057 -0.884171 1.56538
                  CHANNELS 3 Zrotation Xrotation Yrotation
                  End Site
                  {
                    OFFSET -1.62519 -0.234802 1.16502
                  }
                }
              }
              JOINT rMid1
              {
                OFFSET -8.24714 1.18213 3.41376
                CHANNELS 3 Zrotation Xrotation Yrotation
                JOINT rMid2
                {
                  OFFSET -3.10165 -0.590103 1.0647
                  CHANNELS 3 Zrotation Xrotation Yrotation
                  End Site
                  {
                    OFFSET -2.48547 -0.328903 0.83742
                  }
                }
              }
              JOINT rRing1
              {
                OFFSET -8.82822 0.546677 1.51678
                CHANNELS 3 Zrotation Xrotation Yrotation
                JOINT rRing2
                {
                  OFFSET -2.60934 -0.819778 -0.0198488
                  CHANNELS 3 Zrotation Xrotation Yrotation
                  End Site
                  {
                    OFFSET -2.33842 -0.294052 0.168128
                  }
                }
              }
              JOINT rPinky1
              {
                OFFSET -8.27202 -0.0477905 -0.4584
                CHANNELS 3 Zrotation Xrotation Yrotation
                JOINT rPinky2
                {
                  OFFSET -1.82734 -0.647385 -0.700984
                  CHANNELS 3 Zrotation Xrotation Yrotation
                  End Site
                  {
                    OFFSET -1.69225 -0.51767 -0.607171
                  }
                }
              }
            }
          }
        }
      }
      JOINT lCollar
      {
        OFFSET 2.68224 19.2634 -4.8768
        CHANNELS 3 Zrotation Xrotation Yrotation
        JOINT lShldr
        {
          OFFSET 8.77824 -1.95073 1.46304
          CHANNELS 3 Zrotation Xrotation Yrotation
          JOINT lForeArm
          {
            OFFSET 28.1742 -1.7115 0.48768
            CHANNELS 3 Zrotation Xrotation Yrotation
            JOINT lHand
            {
              OFFSET 22.5879 0.773209 7.07136
              CHANNELS 3 Zrotation Xrotation Yrotation
              JOINT lThumb1
              {
                OFFSET 1.2192 -0.487915 3.41376
                CHANNELS 3 Zrotation Xrotation Yrotation
                JOINT lThumb2
                {
                  OFFSET 3.37035 -0.52449 3.41376
                  CHANNELS 3 Zrotation Xrotation Yrotation
                  End Site
                  {
                    OFFSET 1.78271 -1.18214 1.43049
                  }
                }
              }
              JOINT lIndex1
              {
                OFFSET 7.75947 0.938293 5.60832
                CHANNELS 3 Zrotation Xrotation Yrotation
                JOINT lIndex2
                {
                  OFFSET 2.54057 -0.884171 1.56538
                  CHANNELS 3 Zrotation Xrotation Yrotation
                  End Site
                  {
                    OFFSET 1.62519 -0.234802 1.16502
                  }
                }
              }
              JOINT lMid1
              {
                OFFSET 8.24714 1.18213 3.41376
                CHANNELS 3 Zrotation Xrotation Yrotation
                JOINT lMid2
                {
                  OFFSET 3.10165 -0.590103 1.0647
                  CHANNELS 3 Zrotation Xrotation Yrotation
                  End Site
                  {
                    OFFSET 2.48547 -0.328903 0.83742
                  }
                }
              }
              JOINT lRing1
              {
                OFFSET 8.82822 0.546677 1.51678
                CHANNELS 3 Zrotation Xrotation Yrotation
                JOINT lRing2
                {
                  OFFSET 2.60934 -0.819778 -0.0198488
                  CHANNELS 3 Zrotation Xrotation Yrotation
                  End Site
                  {
                    OFFSET 2.33842 -0.294052 0.168128
                  }
                }
              }
              JOINT lPinky1
              {
                OFFSET 8.27202 -0.0477905 -0.4584
                CHANNELS 3 Zrotation Xrotation Yrotation
                JOINT lPinky2
                {
                  OFFSET 1.82734 -0.647385 -0.700984
                  CHANNELS 3 Zrotation Xrotation Yrotation
                  End Site
                  {
                    OFFSET 1.69225 -0.51767 -0.607171
                  }
                }
              }
            }
          }
        }
      }
    }
  }
  JOINT rButtock
  {
    OFFSET -8.77824 4.35084 1.2192
    CHANNELS 3 Zrotation Xrotation Yrotation
    JOINT rThigh
    {
      OFFSET 0 -1.70687 -2.19456
      CHANNELS 3 Zrotation Xrotation Yrotation
      JOINT rShin
      {
        OFFSET 0 -36.8199 0.73152
        CHANNELS 3 Zrotation Xrotation Yrotation
        JOINT rFoot
        {
          OFFSET 0.73152 -45.1104 -5.12064
          CHANNELS 3 Zrotation Xrotation Yrotation
          End Site
          {
            OFFSET -1.1221 -3.69964 12.103
          }
        }
      }
    }
  }
  JOINT lButtock
  {
    OFFSET 8.77824 4.35084 1.2192
    CHANNELS 3 Zrotation Xrotation Yrotation
    JOINT lThigh
    {
      OFFSET 0 -1.70687 -2.19456
      CHANNELS 3 Zrotation Xrotation Yrotation
      JOINT lShin
      {
        OFFSET 0 -36.8199 0.73152
        CHANNELS 3 Zrotation Xrotation Yrotation
        JOINT lFoot
        {
          OFFSET -0.73152 -45.1104 -5.12064
          CHANNELS 3 Zrotation Xrotation Yrotation
          End Site
          {
            OFFSET 1.1221 -3.69964 12.103
          }
        }
      }
    }
  }
}
MOTION
Frames:	6
Frame Time:	0.03333
-0.23869999131420627 38.16800117492676 -23.942800031181832 -158.22898864746094 80.98420715332031 -150.3619842529297 -2.7039291858673096 16.19068717956543 16.849618911743164 -4.518963813781738 -14.269893646240234 3.9352948665618896 0.7066600322723389 14.668590545654297 13.022195816040039 -0.16546186804771423 -22.155391693115234 25.64719581604004 -0.0 0.0 -0.0 -0.0 0.0 -0.0 -0.0 0.0 -0.0 12.833198547363281 61.95219421386719 46.090396881103516 -27.504396438598633 -42.49070358276367 88.5136947631836 -0.01474024448543787 3.4641008377075195 0.4874519407749176 -0.0 0.0 -0.0 -0.0 0.0 -0.0 -0.0 0.0 -0.0 7.73087739944458 5.47489595413208 0.41732463240623474 -0.0 0.0 -0.0 2.9054994583129883 0.9650753736495972 0.10300876200199127 -0.0 0.0 -0.0 10.278595924377441 0.7317469120025635 0.026285577565431595 -0.0 0.0 -0.0 2.221662759780884 -0.7335850596427917 -0.20831839740276337 -0.0 0.0 -0.0 -54.41380310058594 8.48597240447998 -19.01720428466797 27.305099487304688 -43.1400032043457 -89.7588882446289 2.339216470718384 -39.15480041503906 6.571192741394043 -0.0 0.0 -0.0 -0.0 0.0 -0.0 -0.0 0.0 -0.0 -7.73087739944458 5.47489595413208 -0.41732463240623474 -0.0 0.0 -0.0 -2.9054994583129883 0.9650753736495972 -0.10300876200199127 -0.0 0.0 -0.0 -10.278595924377441 0.7317469120025635 -0.026285577565431595 -0.0 0.0 -0.0 -2.221662759780884 -0.7335850596427917 0.20831839740276337 -0.0 0.0 -0.0 -86.9345932006836 -35.90669631958008 -70.08280181884766 -175.97911071777344 73.3114013671875 178.32810974121094 -0.6934708952903748 -24.69723892211914 -3.0360910892486572 -0.0 0.0 -0.0 111.47199249267578 -48.606201171875 90.55228424072266 174.9916229248047 74.18157958984375 -175.36569213867188 -9.90019702911377 -21.487884521484375 -14.826712608337402
-0.27499999123392627 38.074201345443726 -23.922700030925625 -157.63999938964844 80.95182037353516 -149.77197265625 -2.511838912963867 16.319299697875977 16.801803588867188 -4.557988166809082 -14.304810523986816 3.9208264350891113 0.6504075527191162 14.669204711914062 13.026893615722656 -0.057702694088220596 -22.280391693115234 25.67901039123535 -0.0 0.0 -0.0 -0.0 0.0 -0.0 -0.0 0.0 -0.0 12.615093231201172 61.79389190673828 46.25509262084961 -27.511398315429688 -42.46699523925781 88.46829986572266 -0.015030375681817532 3.4976797103881836 0.4922717213630676 -0.0 0.0 -0.0 -0.0 0.0 -0.0 -0.0 0.0 -0.0 7.73087739944458 5.47489595413208 0.41732463240623474 -0.0 0.0 -0.0 2.9054994583129883 0.9650753736495972 0.10300876200199127 -0.0 0.0 -0.0 10.278595924377441 0.7317469120025635 0.026285577565431595 -0.0 0.0 -0.0 2.221662759780884 -0.7335850596427917 -0.20831839740276337 -0.0 0.0 -0.0 -54.44479751586914 8.460711479187012 -19.01119613647461 27.30910301208496 -43.127994537353516 -89.73548889160156 2.321537494659424 -39.035400390625 6.54316520690918 -0.0 0.0 -0.0 -0.0 0.0 -0.0 -0.0 0.0 -0.0 -7.73087739944458 5.47489595413208 -0.41732463240623474 -0.0 0.0 -0.0 -2.9054994583129883 0.9650753736495972 -0.10300876200199127 -0.0 0.0 -0.0 -10.278595924377441 0.7317469120025635 -0.026285577565431595 -0.0 0.0 -0.0 -2.221662759780884 -0.7335850596427917 0.20831839740276337 -0.0 0.0 -0.0 -87.0025863647461 -35.914794921875 -70.20338439941406 -176.00497436523438 73.2168197631836 178.3759765625 -0.8194695711135864 -24.66460418701172 -3.248467445373535 -0.0 0.0 -0.0 111.87199401855469 -48.47819137573242 90.80429077148438 175.02073669433594 74.05008697509766 -175.38766479492188 -9.9686279296875 -21.409509658813477 -14.963997840881348
-0.30599999154219404 38.013601303100586 -23.902900031498575 -156.62100219726562 80.89678192138672 -148.74098205566406 -2.2130367755889893 16.41126251220703 16.734539031982422 -4.6336989402771 -14.332000732421875 3.9014980792999268 0.6153956055641174 14.681899070739746 13.033096313476562 0.004742122720927 -22.310903549194336 25.702503204345703 -0.0 0.0 -0.0 -0.0 0.0 -0.0 -0.0 0.0 -0.0 12.446496963500977 61.67349624633789 46.45759963989258 -27.531597137451172 -42.3966064453125 88.33470153808594 -0.015778660774230957 3.5840485095977783 0.5043179392814636 -0.0 0.0 -0.0 -0.0 0.0 -0.0 -0.0 0.0 -0.0 7.73087739944458 5.47489595413208 0.41732463240623474 -0.0 0.0 -0.0 2.9054994583129883 0.9650753736495972 0.10300876200199127 -0.0 0.0 -0.0 10.278595924377441 0.7317469120025635 0.026285577565431595 -0.0 0.0 -0.0 2.221662759780884 -0.7335850596427917 -0.20831839740276337 -0.0 0.0 -0.0 -54.45798110961914 8.432330131530762 -19.019737243652344 27.32131004333496 -43.08998489379883 -89.66219329833984 2.3107926845550537 -38.962398529052734 6.52610969543457 -0.0 0.0 -0.0 -0.0 0.0 -0.0 -0.0 0.0 -0.0 -7.73087739944458 5.47489595413208 -0.41732463240623474 -0.0 0.0 -0.0 -2.9054994583129883 0.9650753736495972 -0.10300876200199127 -0.0 0.0 -0.0 -10.278595924377441 0.7317469120025635 -0.026285577565431595 -0.0 0.0 -0.0 -2.221662759780884 -0.7335850596427917 0.20831839740276337 -0.0 0.0 -0.0 -86.91899108886719 -35.96780014038086 -70.2632827758789 -176.02113342285156 73.18729400634766 178.41920471191406 -0.9752056002616882 -24.656431198120117 -3.522625207901001 -0.0 0.0 -0.0 112.30799102783203 -48.37840270996094 91.0359878540039 175.04574584960938 73.93759155273438 -175.412841796875 -9.974472045898438 -21.375699996948242 -14.978902816772461
-0.3258999917306937 37.99490034580231 -23.889300031260063 -155.0480194091797 80.72067260742188 -147.17498779296875 -1.7871873378753662 16.50657081604004 16.655717849731445 -4.753683090209961 -14.347390174865723 3.879244565963745 0.6144987940788269 14.645509719848633 13.045697212219238 0.03507599979639053 -22.266300201416016 25.731897354125977 -0.0 0.0 -0.0 -0.0 0.0 -0.0 -0.0 0.0 -0.0 12.343993186950684 61.5557975769043 46.50619888305664 -27.537399291992188 -42.37580108642578 88.29549407958984 -0.015053889714181423 3.5003089904785156 0.49267107248306274 -0.0 0.0 -0.0 -0.0 0.0 -0.0 -0.0 0.0 -0.0 7.73087739944458 5.47489595413208 0.41732463240623474 -0.0 0.0 -0.0 2.9054994583129883 0.9650753736495972 0.10300876200199127 -0.0 0.0 -0.0 10.278595924377441 0.7317469120025635 0.026285577565431595 -0.0 0.0 -0.0 2.221662759780884 -0.7335850596427917 -0.20831839740276337 -0.0 0.0 -0.0 -54.47299575805664 8.44874095916748 -19.04691505432129 27.334897994995117 -43.047203063964844 -89.57949829101562 2.3291544914245605 -39.086997985839844 6.555237293243408 -0.0 0.0 -0.0 -0.0 0.0 -0.0 -0.0 0.0 -0.0 -7.73087739944458 5.47489595413208 -0.41732463240623474 -0.0 0.0 -0.0 -2.9054994583129883 0.9650753736495972 -0.10300876200199127 -0.0 0.0 -0.0 -10.278595924377441 0.7317469120025635 -0.026285577565431595 -0.0 0.0 -0.0 -2.221662759780884 -0.7335850596427917 0.20831839740276337 -0.0 0.0 -0.0 -86.63980102539062 -36.05189514160156 -70.21989440917969 -176.0258331298828 73.22520446777344 178.45286560058594 -1.1340380907058716 -24.571292877197266 -3.8061983585357666 -0.0 0.0 -0.0 112.7719955444336 -48.33579635620117 91.220703125 175.07029724121094 73.85210418701172 -175.43728637695312 -9.953889846801758 -21.357385635375977 -14.948211669921875
-0.34919999161502346 37.991100549697876 -23.881800030903833 -153.49200439453125 80.5399169921875 -145.62698364257812 -1.2359750270843506 16.60498046875 16.565513610839844 -4.917936325073242 -14.351005554199219 3.8540074825286865 0.6480767726898193 14.56010627746582 13.064682960510254 0.03306375816464424 -22.146408081054688 25.767194747924805 -0.0 0.0 -0.0 -0.0 0.0 -0.0 -0.0 0.0 -0.0 12.305903434753418 61.44099807739258 46.40290069580078 -27.529298782348633 -42.404701232910156 88.35028839111328 -0.012940345332026482 3.2465813159942627 0.45661866664886475 -0.0 0.0 -0.0 -0.0 0.0 -0.0 -0.0 0.0 -0.0 7.73087739944458 5.47489595413208 0.41732463240623474 -0.0 0.0 -0.0 2.9054994583129883 0.9650753736495972 0.10300876200199127 -0.0 0.0 -0.0 10.278595924377441 0.7317469120025635 0.026285577565431595 -0.0 0.0 -0.0 2.221662759780884 -0.7335850596427917 -0.20831839740276337 -0.0 0.0 -0.0 -54.48970413208008 8.510315895080566 -19.092533111572266 27.3501033782959 -42.99949645996094 -89.48748779296875 2.3772287368774414 -39.409088134765625 6.631223678588867 -0.0 0.0 -0.0 -0.0 0.0 -0.0 -0.0 0.0 -0.0 -7.73087739944458 5.47489595413208 -0.41732463240623474 -0.0 0.0 -0.0 -2.9054994583129883 0.9650753736495972 -0.10300876200199127 -0.0 0.0 -0.0 -10.278595924377441 0.7317469120025635 -0.026285577565431595 -0.0 0.0 -0.0 -2.221662759780884 -0.7335850596427917 0.20831839740276337 -0.0 0.0 -0.0 -86.164306640625 -36.166900634765625 -70.07250213623047 -176.02108764648438 73.33052062988281 178.47911071777344 -1.2907239198684692 -24.409109115600586 -4.097880840301514 -0.0 0.0 -0.0 113.2649917602539 -48.35070037841797 91.35960388183594 175.09214782714844 73.793701171875 -175.4622802734375 -9.906935691833496 -21.35449981689453 -14.871906280517578
-0.37909999227849767 38.00550103187561 -23.897900031261088 -152.13502502441406 80.32813262939453 -144.28497314453125 -0.7591969966888428 16.717975616455078 16.515111923217773 -5.081498622894287 -14.361004829406738 3.8370578289031982 0.6374991536140442 14.499804496765137 13.060501098632812 0.06102985888719559 -22.20319366455078 25.766109466552734 -0.0 0.0 -0.0 -0.0 0.0 -0.0 -0.0 0.0 -0.0 12.425707817077637 61.3389892578125 46.18589401245117 -27.525100708007812 -42.41909408569336 88.37770080566406 -0.012141073122620583 3.145545721054077 0.4421834349632263 -0.0 0.0 -0.0 -0.0 0.0 -0.0 -0.0 0.0 -0.0 7.73087739944458 5.47489595413208 0.41732463240623474 -0.0 0.0 -0.0 2.9054994583129883 0.9650753736495972 0.10300876200199127 -0.0 0.0 -0.0 10.278595924377441 0.7317469120025635 0.026285577565431595 -0.0 0.0 -0.0 2.221662759780884 -0.7335850596427917 -0.20831839740276337 -0.0 0.0 -0.0 -54.48731231689453 8.606666564941406 -19.183244705200195 27.3622989654541 -42.960693359375 -89.41289520263672 2.430093765258789 -39.64472961425781 6.693645000457764 -0.0 0.0 -0.0 -0.0 0.0 -0.0 -0.0 0.0 -0.0 -7.73087739944458 5.47489595413208 -0.41732463240623474 -0.0 0.0 -0.0 -2.9054994583129883 0.9650753736495972 -0.10300876200199127 -0.0 0.0 -0.0 -10.278595924377441 0.7317469120025635 -0.026285577565431595 -0.0 0.0 -0.0 -2.221662759780884 -0.7335850596427917 0.20831839740276337 -0.0 0.0 -0.0 -85.71698760986328 -36.257999420166016 -69.93199157714844 -176.00997924804688 73.45759582519531 178.4950408935547 -1.4504404067993164 -24.311386108398438 -4.385153770446777 -0.0 0.0 -0.0 113.65899658203125 -48.42499542236328 91.46320343017578 175.10398864746094 73.76910400390625 -175.47799682617188 -9.840280532836914 -21.347898483276367 -14.764287948608398
